<svg id="Слой_1" data-name="Слой 1" xmlns="http://www.w3.org/2000/svg" viewBox="0 0 132.13 113.21"><defs><style>.cls-1{fill:#253166;}.cls-2{fill:#fff;}</style></defs><title>нитки и иголка</title><path class="cls-1" d="M304.77,299.45,304,297a69,69,0,0,1,7.92-1.7c7.15-1.25,13.91-2.43,16.81-8.22,3.7-7.37,3.39-17.82,3.13-27-.09-3-.17-5.9-.11-8.54.11-5,2-11.56,6.06-14.35a8.41,8.41,0,0,1,7.84-.84c7.73,2.67,5.34,10.94,3.6,17-.38,1.32-.74,2.57-1,3.71-2.1,9.29-.52,16.1,5.62,24.29l-2,1.52c-6.64-8.87-8.34-16.26-6.06-26.37.27-1.21.64-2.49,1-3.85,2-7,3.08-12.13-2-13.89a5.83,5.83,0,0,0-5.56.53c-3.51,2.44-4.9,8.71-5,12.32-.05,2.58,0,5.41.11,8.41.27,9.52.59,20.31-3.39,28.25-3.47,6.93-11.18,8.27-18.64,9.58A66.46,66.46,0,0,0,304.77,299.45Z" transform="translate(-225.62 -219.04)"/><ellipse class="cls-2" cx="66.04" cy="91.26" rx="36.15" ry="16.58"/><path class="cls-1" d="M327,310.3c-.19,5.69-6,9.1-10.57,11.21C308.79,325,300,326,291.66,326.09a64.11,64.11,0,0,1-23.43-4c-5-1.93-11.72-5.68-11.93-11.78-.19-5.59,6.25-9.23,10.57-11.21,7.65-3.51,16.46-4.52,24.79-4.58a64.11,64.11,0,0,1,23.43,4c5,1.93,11.72,5.68,11.92,11.78,0,1,1.62,1,1.58,0-.39-11.76-18.28-15.68-27.16-16.76-13.7-1.66-32.05-.9-42.89,9-3.12,2.85-4.71,7-3.21,11,1.78,4.82,7.06,7.75,11.48,9.66,14.25,6.17,32.51,6,47.06,1,6.19-2.12,14.46-6.41,14.71-13.91C328.63,309.28,327,309.28,327,310.3Z" transform="translate(-225.62 -219.04)"/><path class="cls-2" d="M291.66,326.88c-20,0-36.15-7.42-36.15-16.58v4.58c0,9.16,16.19,16.58,36.15,16.58s36.15-7.42,36.15-16.58V310.3C327.81,319.46,311.62,326.88,291.66,326.88Z" transform="translate(-225.62 -219.04)"/><path class="cls-1" d="M291.66,326.09a66.17,66.17,0,0,1-23.43-4c-5-1.93-11.72-5.68-11.93-11.78a.79.79,0,0,0-1.58,0c0,2.43-.26,5,.45,7.33.94,3.12,3.61,5.46,6.19,7.25,8.52,5.92,20.22,7.3,30.3,7.37,10.24.07,21.58-1.67,30.3-7.37,2.48-1.62,5-3.92,6-6.76.92-2.49.63-5.21.63-7.83a.79.79,0,0,0-1.58,0c-.19,5.69-6,9.1-10.57,11.21C308.79,325,300,326,291.66,326.09a.79.79,0,0,0,0,1.58c9-.06,18.1-1.36,26.33-5.13,4.95-2.27,10.41-6.29,10.61-12.24H327a28.48,28.48,0,0,1-.24,6.41c-.8,3.41-4,5.86-6.84,7.58-8.23,5.06-18.82,6.31-28.27,6.37s-19.88-1.52-28.27-6.37c-2.82-1.63-5.54-4-6.69-7.08-.77-2.09-.39-4.73-.39-6.91h-1.58c.19,5.75,5.21,9.48,9.89,11.89,8.2,4.22,17.95,5.42,27,5.48A.79.79,0,0,0,291.66,326.09Z" transform="translate(-225.62 -219.04)"/><path class="cls-1" d="M259.82,236.49v73.39h0c0,7.32,14.25,13.25,31.84,13.25s31.84-5.93,31.84-13.25h0V236.49Z" transform="translate(-225.62 -219.04)"/><ellipse class="cls-2" cx="66.04" cy="17.44" rx="36.15" ry="16.58"/><path class="cls-1" d="M327,236.49c-.19,5.69-6,9.1-10.57,11.21-7.65,3.51-16.46,4.52-24.79,4.58a64.11,64.11,0,0,1-23.43-4c-5-1.93-11.72-5.68-11.93-11.78-.19-5.59,6.25-9.23,10.57-11.21,7.65-3.51,16.46-4.52,24.79-4.58a64.12,64.12,0,0,1,23.43,4c5,1.93,11.72,5.68,11.92,11.78,0,1,1.62,1,1.58,0-.39-11.76-18.28-15.68-27.16-16.76-13.7-1.66-32.05-.9-42.89,9-3.12,2.85-4.71,7-3.21,11,1.78,4.82,7.06,7.75,11.48,9.66,14.25,6.17,32.51,6,47.06,1,6.19-2.12,14.46-6.41,14.71-13.91C328.63,235.47,327,235.47,327,236.49Z" transform="translate(-225.62 -219.04)"/><ellipse class="cls-1" cx="66.04" cy="17.44" rx="28.35" ry="11.78"/><ellipse class="cls-2" cx="66.04" cy="18.08" rx="25.69" ry="10.29"/><path class="cls-2" d="M291.66,253.07c-20,0-36.15-7.42-36.15-16.58v4.58c0,9.16,16.19,16.58,36.15,16.58s36.15-7.42,36.15-16.58v-4.58C327.81,245.65,311.62,253.07,291.66,253.07Z" transform="translate(-225.62 -219.04)"/><path class="cls-1" d="M291.66,252.28a66.15,66.15,0,0,1-23.43-4c-5-1.93-11.72-5.68-11.93-11.78a.79.79,0,0,0-1.58,0c0,2.43-.26,5,.45,7.33.94,3.12,3.61,5.46,6.19,7.25,8.52,5.92,20.22,7.3,30.3,7.37,10.24.07,21.58-1.67,30.3-7.37,2.48-1.62,5-3.92,6-6.76.92-2.49.63-5.21.63-7.83a.79.79,0,0,0-1.58,0c-.19,5.69-6,9.1-10.57,11.21-7.65,3.51-16.46,4.52-24.79,4.58a.79.79,0,0,0,0,1.58c9-.06,18.1-1.36,26.33-5.13,4.95-2.27,10.41-6.29,10.61-12.24H327a28.48,28.48,0,0,1-.24,6.41c-.8,3.41-4,5.86-6.84,7.58-8.23,5.06-18.82,6.31-28.27,6.37s-19.88-1.52-28.27-6.37c-2.82-1.63-5.54-4-6.69-7.08-.77-2.09-.39-4.73-.39-6.91h-1.58c.19,5.75,5.21,9.48,9.89,11.89,8.2,4.22,17.95,5.42,27,5.48A.79.79,0,0,0,291.66,252.28Z" transform="translate(-225.62 -219.04)"/><ellipse class="cls-1" cx="66.04" cy="17.44" rx="7.12" ry="2.9"/><path class="cls-2" d="M263.31,311.48l.56.37c.18.12.4.28.67.44l.93.54a28.76,28.76,0,0,0,2.63,1.26c.52.22,1.08.42,1.67.65s1.22.42,1.88.63c1.32.39,2.77.79,4.32,1.12s3.2.61,4.9.87,3.49.41,5.3.53,3.65.17,5.49.18,3.69,0,5.49-.19,3.59-.3,5.3-.53,3.36-.52,4.9-.87,3-.73,4.32-1.12c.66-.21,1.28-.43,1.88-.63s1.15-.42,1.67-.65a28.71,28.71,0,0,0,2.63-1.26l.93-.54c.27-.16.49-.32.67-.44l.55-.37-.51.43A15.81,15.81,0,0,1,318,313a29.06,29.06,0,0,1-2.55,1.48c-.51.27-1.06.51-1.64.78s-1.21.5-1.87.75a43.22,43.22,0,0,1-4.33,1.35c-1.56.42-3.22.76-5,1.05s-3.53.53-5.37.65-3.72.21-5.58.23-3.75-.08-5.58-.23-3.64-.39-5.37-.65-3.4-.63-5-1.05a43.4,43.4,0,0,1-4.33-1.35c-.66-.25-1.28-.5-1.87-.75s-1.13-.52-1.64-.78a28.89,28.89,0,0,1-2.56-1.47,15.94,15.94,0,0,1-1.52-1.13Z" transform="translate(-225.62 -219.04)"/><path class="cls-2" d="M263.31,305.09l.52.35c.17.11.38.26.63.41l.88.51a27.35,27.35,0,0,0,2.47,1.2c1,.41,2.1.82,3.34,1.22s2.6.76,4.06,1.09,3,.6,4.61.86,3.28.42,5,.55,3.44.2,5.17.23,3.48,0,5.17-.12,3.38-.24,5-.43,3.17-.44,4.63-.74,2.83-.63,4.09-1,2.39-.73,3.38-1.1,1.83-.76,2.52-1.09l.9-.47c.26-.14.47-.28.65-.38l.54-.32-.5.38a15.32,15.32,0,0,1-1.48,1c-.66.39-1.48.85-2.45,1.31-.48.24-1,.45-1.57.7s-1.16.44-1.78.67c-1.25.42-2.62.85-4.1,1.19s-3,.67-4.68.92-3.33.45-5.07.55-3.5.16-5.27.16-3.53-.12-5.26-.28-3.42-.4-5.06-.67-3.19-.63-4.66-1a41.4,41.4,0,0,1-4.07-1.32c-.62-.25-1.2-.48-1.76-.73s-1.07-.5-1.54-.75a27.13,27.13,0,0,1-2.4-1.41,14.78,14.78,0,0,1-1.42-1.08Z" transform="translate(-225.62 -219.04)"/><path class="cls-2" d="M263.31,298.71l.49.33c.16.1.35.25.59.39l.83.48a25.54,25.54,0,0,0,2.31,1.13c.91.39,2,.78,3.12,1.17s2.43.74,3.8,1.05,2.81.59,4.32.85,3.07.43,4.67.57,3.22.23,4.85.28h2.44c.82,0,1.64,0,2.43-.05l2.37-.12c.78,0,1.55-.15,2.31-.22,1.52-.13,3-.38,4.36-.6.7-.09,1.36-.26,2-.4l1.87-.4,1.68-.49c.53-.16,1.06-.26,1.52-.46.93-.36,1.76-.63,2.41-.92,1.28-.63,2-1,2-1s-.69.44-1.92,1.2c-.63.35-1.44.7-2.35,1.14s-2,.77-3.17,1.21l-1.87.53c-.65.18-1.31.38-2,.5l-2.15.44c-.73.17-1.5.22-2.26.34s-1.55.23-2.35.29l-2.43.17c-.82.07-1.63.07-2.45.08l-2.48,0c-1.66-.06-3.31-.15-4.94-.32s-3.21-.42-4.74-.69-3-.63-4.36-1a39.4,39.4,0,0,1-3.81-1.28c-.57-.24-1.13-.46-1.64-.71s-1-.47-1.44-.72a25.94,25.94,0,0,1-2.24-1.35,14,14,0,0,1-1.33-1Z" transform="translate(-225.62 -219.04)"/><path class="cls-2" d="M263.31,292.33l.46.31c.15.1.33.23.56.36l.77.45c.58.33,1.31.7,2.16,1.07s1.83.74,2.91,1.12,2.27.71,3.54,1,2.62.58,4,.84,2.87.44,4.36.59,3,.26,4.53.32l2.28,0c.77,0,1.53,0,2.27,0l2.22-.08c.73,0,1.45-.11,2.16-.16,1.43-.09,2.79-.3,4.09-.47.65-.07,1.27-.22,1.88-.33s1.19-.21,1.75-.33l1.59-.4c.51-.13,1-.22,1.43-.38.88-.29,1.67-.51,2.29-.76,1.23-.51,2-.79,2-.79s-.67.38-1.86,1c-.6.31-1.37.6-2.24,1s-1.89.67-3,1-2.34.64-3.65.89-2.69.52-4.14.65c-.72.07-1.45.19-2.21.23l-2.28.12c-.77.05-1.53,0-2.3,0l-2.32,0c-1.55-.08-3.1-.18-4.62-.37s-3-.44-4.43-.71-2.79-.63-4.07-1-2.46-.82-3.55-1.25a28.36,28.36,0,0,1-2.86-1.38c-.83-.46-1.52-.9-2.08-1.28a13.2,13.2,0,0,1-1.24-1Z" transform="translate(-225.62 -219.04)"/><path class="cls-2" d="M263.31,285.95s.62.37,1.68,1c.54.32,1.24.62,2,1a13.08,13.08,0,0,0,1.28.51l1.42.56,1.59.49c.55.16,1.1.37,1.7.49,1.19.28,2.43.61,3.74.82.65.11,1.31.26,2,.35l2.06.27c.34,0,.69.1,1,.13l1.05.08,2.12.16c.68,0,1.42.05,2.13.08s1.42.06,2.11,0l2.06,0c.68,0,1.36-.07,2-.11,1.33-.05,2.6-.22,3.82-.34.61-.05,1.19-.18,1.76-.25s1.12-.15,1.64-.26l1.5-.31c.48-.09.93-.17,1.35-.3.83-.23,1.58-.39,2.17-.59,1.18-.4,1.87-.61,1.87-.61s-.64.32-1.79.85c-.57.26-1.3.5-2.12.81s-1.78.56-2.82.86-2.2.52-3.42.74-2.52.43-3.87.52c-.68.06-1.36.14-2.06.17l-2.12.07c-.72,0-1.43,0-2.14,0s-1.41,0-2.16-.06l-2.16-.19-1.07-.09c-.36,0-.71-.1-1.06-.15l-2.09-.32c-.69-.11-1.36-.28-2-.42a37.8,37.8,0,0,1-3.78-1c-1.19-.35-2.28-.83-3.29-1.21s-1.89-.88-2.65-1.33-1.42-.85-1.93-1.22C263.86,286.41,263.31,285.95,263.31,285.95Z" transform="translate(-225.62 -219.04)"/><path class="cls-2" d="M263.31,279.57s.57.34,1.56,1c.5.3,1.14.58,1.85.94a11.76,11.76,0,0,0,1.18.49l1.31.53c.47.16,1,.31,1.46.47s1,.36,1.57.48c1.1.28,2.24.6,3.45.81.6.12,1.21.26,1.84.36l1.9.28,1,.14,1,.09,2,.19c.63,0,1.32.08,2,.12s1.32.08,2,.07l1.91,0,1.87-.05c1.24,0,2.42-.14,3.55-.21.56,0,1.11-.13,1.64-.18s1-.09,1.53-.18l1.4-.22c.45-.06.87-.13,1.26-.21.79-.17,1.49-.27,2-.43,1.12-.29,1.77-.44,1.77-.44s-.61.26-1.7.68c-.54.22-1.23.4-2,.65s-1.67.45-2.65.69-2.05.4-3.19.59-2.34.33-3.6.38l-1.91.12-2,0c-.67,0-1.33,0-2,0s-1.31,0-2-.1l-2-.21-1-.11-1-.16-1.94-.33c-.64-.12-1.25-.29-1.87-.43a35.72,35.72,0,0,1-3.49-1c-1.1-.35-2.1-.8-3-1.18s-1.74-.84-2.44-1.27-1.31-.8-1.78-1.15C263.82,280,263.31,279.57,263.31,279.57Z" transform="translate(-225.62 -219.04)"/><path class="cls-2" d="M263.31,273.19l1.44.88c.46.28,1.06.53,1.71.87s1.46.6,2.28,1c.43.16.88.3,1.34.45s.93.34,1.44.46c1,.27,2.06.58,3.17.8.56.12,1.11.26,1.69.36l1.75.29.88.15.9.11,1.8.21c.58.06,1.21.1,1.81.15s1.21.1,1.8.11l1.76.07h1.73c.57,0,1.13,0,1.67,0l1.61,0c1-.09,2-.11,2.94-.21s1.75-.15,2.48-.27,1.39-.16,1.91-.27l1.67-.27-1.61.52c-.51.17-1.15.31-1.88.5s-1.56.34-2.47.51-1.91.29-3,.43-2.17.23-3.33.24l-1.77.06-1.82,0c-.62,0-1.23,0-1.83-.09s-1.2-.07-1.84-.14l-1.84-.24-.92-.12-.9-.17-1.78-.35c-.58-.13-1.15-.29-1.72-.43-1.13-.26-2.19-.65-3.2-1s-1.92-.78-2.77-1.15-1.59-.79-2.23-1.21-1.2-.76-1.62-1.09Z" transform="translate(-225.62 -219.04)"/><path class="cls-2" d="M263.31,266.8l1.33.81c.42.26,1,.49,1.56.81s1.33.57,2.08.91c.39.16.8.28,1.23.44s.85.33,1.32.45c.92.26,1.87.57,2.89.79.51.12,1,.26,1.54.37l1.59.31c.53.12,1.08.21,1.63.28l1.65.24,3.31.32c.55,0,1.1.12,1.64.15l1.58,0c1,0,2,.09,3,.09s1.86-.05,2.71-.07,1.61,0,2.29-.09l1.77-.13,1.55-.09-1.51.34-1.75.36c-.34.06-.7.15-1.08.2l-1.21.14c-.84.1-1.76.2-2.73.29s-2,.06-3.08.08l-1.63,0c-.55,0-1.09-.06-1.64-.1-1.12-.09-2.2-.17-3.37-.28l-1.68-.27c-.56-.08-1.12-.18-1.66-.31l-1.62-.36c-.53-.13-1.05-.29-1.57-.44-1-.26-2-.65-2.92-1s-1.75-.75-2.52-1.11-1.45-.76-2-1.15-1.09-.71-1.47-1Z" transform="translate(-225.62 -219.04)"/><path class="cls-2" d="M263.31,260.42l1.21.73c.38.24.88.45,1.42.75s1.21.53,1.89.85,1.48.56,2.3.85,1.7.55,2.62.79c.46.12.92.26,1.4.37l1.45.33c1,.24,2,.38,3,.58l3,.42c1,.16,2,.23,2.92.31l1.39.12c.45,0,.9.09,1.34.1.87,0,1.7.07,2.47.11l1.1.06h1l1.62,0,1.42,0-1.4.21-1.61.21-1,.12-1.11.06c-.77,0-1.61.08-2.5.11s-1.83,0-2.8-.06a27.57,27.57,0,0,1-3-.21l-3.06-.38c-1-.22-2-.37-3-.64l-1.47-.38c-.48-.14-1-.3-1.42-.44-.94-.27-1.8-.65-2.63-1s-1.58-.72-2.27-1.08-1.31-.72-1.83-1.09-1-.67-1.33-1Z" transform="translate(-225.62 -219.04)"/><path class="cls-2" d="M263.31,254l1.1.66,1.28.69c.52.23,1.07.53,1.71.78l1,.41,1.08.4c.74.28,1.53.52,2.35.79l1.26.37,1.3.34c.87.25,1.77.43,2.66.64s1.79.39,2.69.54,1.77.31,2.62.45l2.47.36,2.22.28,1.89.21c.56.07,1.05.11,1.46.15l1.28.14-1.28.11c-.41,0-.9.08-1.47.08s-1.21,0-1.91,0-1.46,0-2.26-.06-1.65-.09-2.52-.2-1.78-.18-2.69-.35-1.83-.33-2.75-.51-1.83-.43-2.72-.69-1.75-.55-2.58-.84-1.62-.63-2.35-1l-1.07-.51-1-.53c-.62-.33-1.15-.71-1.64-1s-.86-.65-1.18-.9C263.65,254.36,263.31,254,263.31,254Z" transform="translate(-225.62 -219.04)"/><path class="cls-1" d="M337.2,250.9c3.22-2,11.86-6.26,14.53-8s7.06-5.21,5.15-7.55-6.39-.16-9.71,2-10,7.6-13.28,9.72c-22.59,14.74-108.64,71.05-107.85,72S314.49,265.15,337.2,250.9ZM352,237.16a1.41,1.41,0,0,1,1.81.17,1.07,1.07,0,0,1-.39,1.57c-.61.39-13.27,7.9-13.67,7.43S351.42,237.55,352,237.16Z" transform="translate(-225.62 -219.04)"/><path class="cls-2" d="M225.72,319.31a.5.5,0,0,0,.58.11c4.44-1.3,100.21-61.37,111.11-68.22,1.62-1,4.66-2.62,7.59-4.17s5.62-3,6.94-3.81c1.57-1,5.27-3.6,5.75-6.08a2.35,2.35,0,0,0-.49-2c-1-1.18-2.57-1.45-4.76-.81A22.31,22.31,0,0,0,347,237c-1.73,1.11-4.39,3.13-7,5.08s-4.77,3.63-6.33,4.65C301.31,267.88,226,317.21,225.65,319l0,.19Zm108.4-71.94c1.58-1,3.91-2.81,6.38-4.68s5.19-4,6.9-5a21.38,21.38,0,0,1,5.26-2.6c1.87-.55,3.15-.36,3.9.57a1.65,1.65,0,0,1,.35,1.44c-.44,2.24-4.24,4.83-5.39,5.56s-4,2.26-6.88,3.77-6,3.16-7.65,4.2c-35.9,22.53-95.13,59.46-108.38,66.84C240.65,308.64,298.64,270.52,334.12,247.37Z" transform="translate(-225.62 -219.04)"/><path class="cls-2" d="M340.15,246.67c2-.58,13.08-7.18,13.51-7.46a1.67,1.67,0,0,0,.76-1.06,1.26,1.26,0,0,0-.26-1.06,1.73,1.73,0,0,0-1.83-.47,2,2,0,0,0-.52.24c-.12.08-12.22,8.28-12.43,9.37l0,.21.11.13C339.66,246.81,340,246.7,340.15,246.67Zm12.1-9.2a1,1,0,0,1,1.26.09.57.57,0,0,1,.12.48.87.87,0,0,1-.4.55c-.62.4-8.55,5.09-12,6.79C344.11,243.08,351.53,237.93,352.25,237.47Z" transform="translate(-225.62 -219.04)"/><path class="cls-2" d="M305.43,273.24a1.47,1.47,0,0,0,1.93-.74h0a1.47,1.47,0,0,0-1-1.78l-8.53-3a1.47,1.47,0,0,0-1.93.74h0a1.47,1.47,0,0,0,1,1.78Z" transform="translate(-225.62 -219.04)"/><path class="cls-1" d="M307.74,271.21h0a1.76,1.76,0,0,1-.93,2.55,2.28,2.28,0,0,1-1.57,0l-8.53-3a2.08,2.08,0,0,1-1.39-2.5A2,2,0,0,1,298,267.2l8.53,3A2.25,2.25,0,0,1,307.74,271.21Zm-11.29-2a1.15,1.15,0,0,0,.63.51l8.53,3a1.14,1.14,0,0,0,.79,0,.68.68,0,0,0,.42-.4,1,1,0,0,0-.7-1.07l-8.53-3a.93.93,0,0,0-1.21.4A.67.67,0,0,0,296.45,269.21Z" transform="translate(-225.62 -219.04)"/><path class="cls-2" d="M308.07,271.34a1.47,1.47,0,0,0,1.93-.74h0a1.47,1.47,0,0,0-1-1.78l-8.53-3a1.47,1.47,0,0,0-1.93.74h0a1.47,1.47,0,0,0,1,1.78Z" transform="translate(-225.62 -219.04)"/><path class="cls-1" d="M310.39,269.31h0a1.76,1.76,0,0,1-.93,2.55,2.27,2.27,0,0,1-1.57,0l-8.53-3a2.08,2.08,0,0,1-1.39-2.5,2,2,0,0,1,2.65-1.09l8.53,3A2.25,2.25,0,0,1,310.39,269.31Zm-11.29-2a1.15,1.15,0,0,0,.63.51l8.53,3a1.14,1.14,0,0,0,.79,0,.68.68,0,0,0,.42-.4,1,1,0,0,0-.7-1.07l-8.53-3a.93.93,0,0,0-1.21.4A.68.68,0,0,0,299.1,267.31Z" transform="translate(-225.62 -219.04)"/><path class="cls-2" d="M311.22,269.56a1.47,1.47,0,0,0,1.93-.74h0a1.47,1.47,0,0,0-1-1.78l-8.53-3a1.47,1.47,0,0,0-1.93.74h0a1.47,1.47,0,0,0,1,1.78Z" transform="translate(-225.62 -219.04)"/><path class="cls-1" d="M313.54,267.52h0a1.76,1.76,0,0,1-.93,2.55,2.27,2.27,0,0,1-1.57,0l-8.54-3a2.08,2.08,0,0,1-1.39-2.5,2,2,0,0,1,2.65-1.09l8.53,3A2.25,2.25,0,0,1,313.54,267.52Zm-11.29-2a1.15,1.15,0,0,0,.63.51l8.53,3a1.14,1.14,0,0,0,.79,0,.68.68,0,0,0,.42-.4,1,1,0,0,0-.7-1.07l-8.53-3a.93.93,0,0,0-1.21.4A.67.67,0,0,0,302.25,265.53Z" transform="translate(-225.62 -219.04)"/><path class="cls-1" d="M346.87,236.85A12.94,12.94,0,0,1,345.1,238a2.66,2.66,0,0,1-.63.59l.37.11c3.55,1.23,4.09,4.11,3.4,8.15h0c.92-.58,1.83-1.16,2.74-1.76C351.21,241.69,350.34,238.56,346.87,236.85Z" transform="translate(-225.62 -219.04)"/></svg>