<svg version="1.1" xmlns="http://www.w3.org/2000/svg" width="1024" height="1024" viewBox="0 0 1024 1024" fill="#404a3d">
<path d="M512 944c61.76 0 112-50.24 112-112s-50.24-112-112-112-112 50.24-112 112 50.24 112 112 112zM512 752c44.112 0 80 35.888 80 80s-35.888 80-80 80-80-35.888-80-80 35.888-80 80-80zM512 880v-32c-8.816 0-16-7.184-16-16s7.184-16 16-16 16 7.184 16 16h32c0-26.464-21.536-48-48-48s-48 21.536-48 48 21.536 48 48 48zM464 192c0 26.464 21.536 48 48 48s48-21.536 48-48-21.536-48-48-48-48 21.536-48 48zM528 192c0 8.816-7.184 16-16 16s-16-7.184-16-16 7.184-16 16-16 16 7.184 16 16zM592 192h32c0-61.76-50.24-112-112-112s-112 50.24-112 112h32c0-44.112 35.888-80 80-80s80 35.888 80 80zM512 48c79.392 0 144 64.608 144 144h32c0-97.040-78.96-176-176-176s-176 78.96-176 176h32c0-79.392 64.608-144 144-144zM816 496h-256v32h256v32h-608v-32h320v-144h80c79.392 0 144-64.608 144-144v-16h-112c-55.728 0-104.080 31.888-128 78.336-23.92-46.448-72.272-78.336-128-78.336h-112v16c0 79.392 64.608 144 144 144h80v112h-288c-17.648 0-32 14.352-32 32v32c0 17.648 14.352 32 32 32l41.632 178.688c-14.672 16.256-27.888 33.984-39.344 53.072l-4.944 8.24 4.944 8.24c62.080 103.472 175.616 167.76 296.304 167.76h10.816c120.688 0 234.224-64.288 296.32-167.76l4.928-8.24-4.944-8.24c-11.44-19.072-24.672-36.8-39.328-53.056l41.184-175.040 0.096-3.664h0.336c17.648 0 32-14.352 32-32v-32c0-17.648-14.352-32-32-32zM416 352c-56.336 0-103.072-41.792-110.864-96h78.864c56.336 0 103.072 41.792 110.864 96h-78.864zM640 256h78.864c-7.792 54.208-54.528 96-110.864 96h-78.864c7.792-54.208 54.528-96 110.864-96zM242.832 832c33.776-52.496 82.496-92.992 138.512-117.52-28.080 31.2-45.344 72.336-45.344 117.52s17.264 86.32 45.36 117.52c-56.032-24.528-104.752-65.024-138.528-117.52zM656 832c0 79.392-64.608 144-144 144s-144-64.608-144-144 64.608-144 144-144 144 64.608 144 144zM642.64 949.52c28.096-31.2 45.36-72.336 45.36-117.52s-17.264-86.32-45.36-117.52c56.016 24.528 104.736 65.024 138.512 117.52-33.76 52.496-82.48 92.992-138.512 117.52zM747.712 744.368c-62.624-55.84-144.608-88.368-230.304-88.368h-10.816c-85.696 0-167.68 32.528-230.304 88.368l-35.856-152.368h543.12l-35.84 152.368z"></path>
</svg>
