<svg id="Слой_1" data-name="Слой 1" xmlns="http://www.w3.org/2000/svg" viewBox="0 0 90.99 35.67"><defs><style>.cls-1,.cls-3{fill:white;}.cls-2{fill:#fff;}.cls-3{font-size:5px;font-family:MyriadPro-LightSemiExt, Myriad Pro;letter-spacing:0.5em;}.cls-4{letter-spacing:0.51em;}.cls-5{letter-spacing:0.5em;}.cls-6{letter-spacing:0.53em;}</style></defs><title>логотип_синий итог</title><path class="cls-1" d="M262,234a.26.26,0,0,1,.41,0,.24.24,0,0,1,0,.39,5.72,5.72,0,0,1-1.35.88q-.9.45-1.65.74l-2.28.84-2.25.83q-.45,1.4-.55,1.68-.48,1.28-.84,2.14a14.13,14.13,0,0,1-.94,1.81,6.83,6.83,0,0,1-1.18,1.5,5,5,0,0,1-1.49.91,5.09,5.09,0,0,1-1.94.36,1.49,1.49,0,0,1-1.13-.41,1.56,1.56,0,0,1-.4-1.14,4.76,4.76,0,0,1,.53-2.2,6,6,0,0,1,1.51-1.85,14.17,14.17,0,0,1,2.09-1.45,27.5,27.5,0,0,1,2.53-1.25q.32-.93.93-2.75,1.38-4.2,2.13-6.2a44.1,44.1,0,0,1-5.5,7.56q-2,2-3.53,2a1.7,1.7,0,0,1-1.39-.59,2.49,2.49,0,0,1-.49-1.64,12.62,12.62,0,0,1,.25-2.39,23.29,23.29,0,0,1,.76-2.84q.51-1.55.89-2.53t1.05-2.68q.6-1.5.89-2.26t.56-1.69a5.44,5.44,0,0,0,.27-1.43q0-.25-.07-.31a.39.39,0,0,0-.25-.06,3.31,3.31,0,0,0-1.35.4l0,0h0q-1,.5-3.13,1.85l-1,.6-.93.55-.94.54-.81.43q-.48.24-.79.36a4.17,4.17,0,0,1-.65.2,2.78,2.78,0,0,1-.59.08,3.16,3.16,0,0,1-1.24-.24,2.23,2.23,0,0,1-.91-.69,2.1,2.1,0,0,1-.43-1.05q-.05-.28.24-.31a.27.27,0,0,1,.34.24,1.62,1.62,0,0,0,.64,1.09,2.17,2.17,0,0,0,1.36.41,4,4,0,0,0,1.48-.48q1-.47,1.76-.93l2.16-1.3q2.23-1.35,3.18-1.88h.05a5.48,5.48,0,0,1,2.2-.78,1.92,1.92,0,0,1,.55.07,1.06,1.06,0,0,1,.43.24,1,1,0,0,1,.26.4,1.47,1.47,0,0,1,.09.51,8.37,8.37,0,0,1-.33,2q-.33,1.24-.66,2.15t-1,2.66q-.83,2.05-1.25,3.21a29.14,29.14,0,0,0-.86,2.93,12.91,12.91,0,0,0-.44,3,1.26,1.26,0,0,0,.23.78.71.71,0,0,0,.6.3,3.83,3.83,0,0,0,2.38-1.4.29.29,0,0,0,.1-.1,28,28,0,0,0,2.25-2.68q2-2.63,5.23-8.18a14.81,14.81,0,0,1,1.53-2.55v0q.35-.42.65-.22a.4.4,0,0,1,.18.22,1.07,1.07,0,0,1,0,.34,2.81,2.81,0,0,1,0,.38c0,.13,0,.25-.06.38a1.79,1.79,0,0,1-.09.31l-.07.18q-1.4,2.58-4.75,12.88.63-.25,1.85-.68l2.19-.8a17.32,17.32,0,0,0,1.6-.7A5.37,5.37,0,0,0,262,234Zm-14.06,11.51a2.67,2.67,0,0,0,1-.19,2.45,2.45,0,0,0,.88-.64,9.45,9.45,0,0,0,.76-1,8.31,8.31,0,0,0,.73-1.34q.38-.84.66-1.59t.71-1.9a3.19,3.19,0,0,1,.13-.4,21.62,21.62,0,0,0-2.25,1.16,13.11,13.11,0,0,0-1.83,1.33,5.38,5.38,0,0,0-1.3,1.63,4.17,4.17,0,0,0-.45,1.91A.85.85,0,0,0,247.92,245.46Z" transform="translate(-236.73 -219.07)"/><path class="cls-1" d="M269.64,232.93q.4.25.1.78l-.25.43q-2.6,4.18-2.6,6.63a2,2,0,0,0,.45,1.4.3.3,0,0,1,0,.31.26.26,0,0,1-.25.16,2.34,2.34,0,0,1-.54-.06,2.07,2.07,0,0,1-.59-.26,1.47,1.47,0,0,1-.54-.65,2.56,2.56,0,0,1-.21-1.1,9.74,9.74,0,0,1,.63-3.33,18.23,18.23,0,0,1-2.18,2.24,2.94,2.94,0,0,1-1.85.79q-1.68,0-1.68-2.1a5.51,5.51,0,0,1,.5-2.13,12.06,12.06,0,0,1,1.08-2,.57.57,0,0,1,.41-.26.68.68,0,0,1,.49.11.83.83,0,0,1,.36.5,1.19,1.19,0,0,1-.14.8,6.76,6.76,0,0,0-1.1,3.2q0,1,.5,1a3.3,3.3,0,0,0,1.83-1v0q.57-.58,1.7-1.9l.9-1a19,19,0,0,1,1.2-2l0,0a1.44,1.44,0,0,1,.79-.49A1.16,1.16,0,0,1,269.64,232.93Z" transform="translate(-236.73 -219.07)"/><path class="cls-1" d="M286,233.75l.23.18a.25.25,0,0,1,0,.4q-.18.25-.63,1a20.09,20.09,0,0,1-2.43,3.23v0l-.27.25a0,0,0,0,1,0,0,4.52,4.52,0,0,1-3.05,1.43,1.76,1.76,0,0,1-.86-.2,1.92,1.92,0,0,1-.58-.46,2.08,2.08,0,0,1-.35-.74,7.36,7.36,0,0,1-.19-.76q-.05-.29-.1-.84a6.66,6.66,0,0,0-.39-1.78.91.91,0,0,0-.91-.53,2.37,2.37,0,0,0-1.63.88,13.37,13.37,0,0,0-1.18,1.58.07.07,0,0,0,0,0,16.46,16.46,0,0,0-1.23,2.55v0a1.1,1.1,0,0,1-.15.38v0a.6.6,0,0,1-.53.33l-.1,0a.85.85,0,0,1-.54-.46,1.16,1.16,0,0,1-.14-.79A28.08,28.08,0,0,1,272,236a23.24,23.24,0,0,1,1.33-3.15.48.48,0,0,1,.7-.2.89.89,0,0,1,.46.58,1.65,1.65,0,0,1-.06,1q-.07.23-.33.8l-.58,1.55a7.74,7.74,0,0,1,.8-1v0a4,4,0,0,1,2.85-1.63,1.87,1.87,0,0,1,.91.21,2.06,2.06,0,0,1,.61.49,2.24,2.24,0,0,1,.38.8q.15.53.21.85t.14.93a8.27,8.27,0,0,0,.34,1.68.69.69,0,0,0,.69.5,3.11,3.11,0,0,0,2-.9l0,0a18.16,18.16,0,0,0,2.6-3.4q.5-.77.68-1Z" transform="translate(-236.73 -219.07)"/><path class="cls-1" d="M296.94,233.9a.26.26,0,0,1,.09.4,6.41,6.41,0,0,1-.93,1.16,19.34,19.34,0,0,1-1.65,1.53,10.09,10.09,0,0,1-2.25,1.4,5.85,5.85,0,0,1-2.45.59,1.5,1.5,0,0,1-.3,0,4.75,4.75,0,0,1-.88.65,4.08,4.08,0,0,1-.48.23,5,5,0,0,1-2,.4,1.73,1.73,0,0,1-1.36-.71,3,3,0,0,1-.59-1.94,4,4,0,0,1,.24-1.34,6.42,6.42,0,0,1,.45-1q.21-.36.64-1l.25-.35a.51.51,0,0,1,.48-.25,2.6,2.6,0,0,1,1.08-.81,3.37,3.37,0,0,1,1.33-.29,2.21,2.21,0,0,1,.65.1,3.15,3.15,0,0,1,.74.36,1.8,1.8,0,0,1,.66.89,4.11,4.11,0,0,1,.25,1.53,4.89,4.89,0,0,1-1,3,5.73,5.73,0,0,0,2.21-.61,9.13,9.13,0,0,0,2-1.33q.88-.76,1.49-1.41a7.45,7.45,0,0,0,.86-1.05A.25.25,0,0,1,296.94,233.9Zm-9.17,5.45a4.87,4.87,0,0,0,.88-.48,3.27,3.27,0,0,1-2.65-2.35,3.34,3.34,0,0,0-.25,1.25v0a2.42,2.42,0,0,0,.18,1,1.13,1.13,0,0,0,1.15.7A2.07,2.07,0,0,0,287.77,239.36Zm1.45-1a4.24,4.24,0,0,0,1.1-3q0-2.3-1.73-2.3a2.76,2.76,0,0,0-1,.2,2.46,2.46,0,0,0-.88.55.82.82,0,0,1,.07,1.18l-.18.27q-.18.28-.25.43A2.84,2.84,0,0,0,289.23,238.38Z" transform="translate(-236.73 -219.07)"/><path class="cls-1" d="M299.76,228.1m-2.65,8.07q-1.48,3.47-.88,4.84a1.1,1.1,0,0,0,1.13.65,4.14,4.14,0,0,0,2.53-1.58,65.54,65.54,0,0,0,4.93-6.1.26.26,0,0,1,.41,0,.25.25,0,0,1,.06.4q-1.3,1.73-2.14,2.81t-1.84,2.24a22.08,22.08,0,0,1-1.7,1.79,7.52,7.52,0,0,1-1.43,1,2.79,2.79,0,0,1-1.33.4,2,2,0,0,1-2-1.25,5.69,5.69,0,0,1,0-3.2,11.18,11.18,0,0,1,1.22-3.45,56.29,56.29,0,0,1,3.36-6.14m1.8.15" transform="translate(-236.73 -219.07)"/><path class="cls-1" d="M314.74,233.75l.2.2a.25.25,0,0,1,0,.4,20,20,0,0,1-3.52,2.86,24.09,24.09,0,0,1-3.94,2.09l0,0h0a10.85,10.85,0,0,1-1.45.53,6.26,6.26,0,0,1-1.8.38,2.48,2.48,0,0,1-.51,0,1.91,1.91,0,0,1-.51-.2,1.67,1.67,0,0,1-.84-1.05,3.27,3.27,0,0,1-.14-1,5.25,5.25,0,0,1,.66-2.44,6.6,6.6,0,0,1,1.75-2.13,3.57,3.57,0,0,1,2.24-.86,1.92,1.92,0,0,1,1.35.44,1.49,1.49,0,0,1,.53.94v.1a1.17,1.17,0,0,1-.43.85,4.37,4.37,0,0,1-1.86,1,9.69,9.69,0,0,1-2.09.43,3.88,3.88,0,0,0-.5,1.73,1.56,1.56,0,0,0,.34,1.18,1.33,1.33,0,0,0,.91.3,6.65,6.65,0,0,0,2.13-.63l.05,0h0a25.58,25.58,0,0,0,3.82-2.05,20.19,20.19,0,0,0,3.46-2.8Zm-7.36,0a2.43,2.43,0,0,0-1.48.55,5.6,5.6,0,0,0-1.28,1.38,8.94,8.94,0,0,0,1.81-.43,3.87,3.87,0,0,0,1.41-.75.65.65,0,0,0,.22-.45Q308.09,233.7,307.39,233.7Z" transform="translate(-236.73 -219.07)"/><path class="cls-1" d="M323.5,233.75l.24.16a.25.25,0,0,1,.09.39,16.12,16.12,0,0,1-2.4,2.9,11.29,11.29,0,0,1-2.51,1.85,12.68,12.68,0,0,1-2.19.91,6.2,6.2,0,0,1-1.73.29q-1.6,0-1.6-2.1a2.82,2.82,0,0,1,0-.33,14.18,14.18,0,0,0-2.45,2.3.24.24,0,0,1-.22.12.24.24,0,0,1-.18-.07.25.25,0,0,1,0-.4,16,16,0,0,1,3-2.73,8.56,8.56,0,0,1,1.4-3.68,1.29,1.29,0,0,1,.75-.49,1.09,1.09,0,0,1,.88,0q.4.28.1.8a12,12,0,0,0-.83,1.68,18.4,18.4,0,0,0,3.15-2.7.24.24,0,0,1,.39-.06.26.26,0,0,1,.06.41,7.86,7.86,0,0,1-1,1q-.67.6-1.23,1l-1.63,1.21s0,0-.1.08a6.72,6.72,0,0,0-.38,2.05,1.49,1.49,0,0,0,.16.83.71.71,0,0,0,.61.22,5.56,5.56,0,0,0,2.23-.58,13.56,13.56,0,0,0,5.3-4.85Z" transform="translate(-236.73 -219.07)"/><path class="cls-1" d="M295.94,234.8s3.93-6.89,5-9.66c1.35-3.5,2.3-4.41,3.07-4.36,0,0,2,.31-1.17,5,0,0-5.46,7.94-6.92,13.91-.1.42-.33-1.54-.43-1.2Z" transform="translate(-236.73 -219.07)"/><path class="cls-2" d="M301.12,226.72s-.23,0,1.2-3.3c0,0,.62-1.62,1.26-1.52.09,0,.59.43-.35,2S301.37,227.29,301.12,226.72Z" transform="translate(-236.73 -219.07)"/><ellipse class="cls-2" cx="300.56" cy="227.88" rx="0.5" ry="0.24" transform="translate(-279.87 164.18) rotate(-61.49)"/><path class="cls-1" d="M316.48,225.49c-5.2,1.4-11.65-.35-14.38-1.24l-.21.55c8.67,2.86,14.48,1.59,14.48,1.59C317.06,225.88,316.48,225.49,316.48,225.49Z" transform="translate(-236.73 -219.07)"/><path class="cls-1" d="M301.46,224.66l.23-.54-.82-.3c-6.94-2.13-9.71-1-10.78-.3-2.66,1.81-1.54,2.69-1.3,2.29,3.14-5.18,12.47-1.22,12.47-1.22Z" transform="translate(-236.73 -219.07)"/><text class="cls-3" transform="translate(32.31 28.32)">fa<tspan class="cls-4" x="8.9" y="0">c</tspan><tspan class="cls-5" x="13.94" y="0">t</tspan><tspan x="18.11" y="0">o</tspan><tspan class="cls-6" x="23.57" y="0">r</tspan><tspan x="27.82" y="0">y</tspan></text></svg>