<svg
                      xmlns="http://www.w3.org/2000/svg"
                      viewBox="0 0 150 150"
                    >
                      <path
                        fillRule="evenodd"
                        clipRule="evenodd"
                        fill='red'
                        d="M95.856 144.7v-7.521l.002-1.565c.001-1.094.001-2.187-.002-3.281-.016-4.166 1.79-7.398 5.367-9.604 2.378-1.467 4.755-2.938 7.16-4.428l2.709-1.676c-2.835-4.335-3.184-8.893-1.034-13.558l-7.872-4.515c-2.198 6.487-5.473 11.542-9.739 15.031-4.621 3.778-10.448 5.758-17.32 5.882-.234.005-.465.007-.696.007-13.365 0-22.625-7.041-27.53-20.929l-7.819 4.492c2.132 4.64 1.777 9.087-1.085 13.564.266.18.518.351.776.511l1.411.874c2.514 1.558 5.113 3.169 7.677 4.741 3.559 2.182 5.364 5.414 5.366 9.605v.633c.001 3.309.002 6.615-.004 9.922 0 .276-.028.541-.058.822-.014.127-.027.26-.039.398l-.044.523H1.41l-.002-5.152c-.002-2.402-.005-4.887.005-7.331.019-4.266 1.907-7.613 5.612-9.953 2.256-1.426 4.566-2.842 6.8-4.212.853-.525 1.707-1.049 2.559-1.571-3.761-7.731-2.806-14.104 2.774-18.448 2.236-1.741 5.199-2.739 8.128-2.739 2.458 0 6.076.688 9.526 3.914l1.682-.967c2.628-1.509 5.346-3.069 8.005-4.641.08-.065.195-.352.184-.472-.699-7.393 1.754-15.011 6.732-20.903 4.928-5.833 11.758-9.376 19.259-10v-7.989H49.078l-.001-7.59c-.001-1.651-.002-3.301.003-4.952.014-4.129 1.811-7.315 5.342-9.471 1.864-1.139 3.77-2.276 5.613-3.376 1.021-.61 2.043-1.22 3.062-1.832.243-.147.486-.307.723-.465-3.68-7.869-2.763-14.04 2.726-18.35a13.36 13.36 0 0 1 8.211-2.834c3.118 0 6.164 1.1 8.575 3.095 5.229 4.326 6.065 10.741 2.371 18.105l2.123 1.312c2.114 1.306 4.232 2.614 6.346 3.933l.475.295c.814.502 1.656 1.022 2.422 1.64 2.35 1.896 3.646 4.321 3.751 7.014.118 3.066.093 6.072.066 9.254-.012 1.329-.021 2.67-.021 4.026v.57H77.279v7.999c.335.059.672.116 1.008.174 1.067.183 2.174.371 3.253.628 12.699 3.022 21.693 14.238 21.873 27.274.006.055.021.182-.026.326-.741 2.223.282 3.213 2.565 4.358 1.756.882 3.398 1.877 5.139 2.931.614.372 1.249.755 1.887 1.132 2.763-2.604 5.932-3.924 9.427-3.924.308 0 .623.011.935.031 3.196.207 6.021 1.452 8.396 3.701 4.056 3.84 5.866 10.997 1.666 17.433.172.129.339.251.51.356.739.458 1.474.925 2.21 1.392 1.758 1.114 3.573 2.268 5.418 3.279 3.794 2.082 6.096 4.81 7.035 8.341l.021.073v14.621l-9.528.009c-9.752.011-19.505.02-29.258.027l-3.123.001H95.856zm-47.106-4.365c.003-.855.013-1.705.022-2.55.028-2.478.054-4.819-.074-7.19-.085-1.564-1.005-2.907-2.736-3.987-3.439-2.146-6.8-4.254-10.114-6.418-.312-.204-.554-.295-.785-.295-.221 0-.471.082-.81.263-2.308 1.241-4.63 1.873-6.901 1.873-2.338 0-4.677-.669-6.951-1.985-.063-.037-.214-.074-.406-.074-.227 0-.411.049-.494.099-3.396 2.048-6.642 4.076-10.532 6.515-1.234.774-2.729 2.115-2.846 4.102-.14 2.364-.109 4.797-.08 7.149.01.818.021 1.661.024 2.5H48.75zm95.264-.252c.004-.79.014-1.572.022-2.349.025-2.228.05-4.334-.063-6.458-.117-2.254-1.12-4.045-2.897-5.182a393.133 393.133 0 0 0-10.048-6.205c-.118-.069-.363-.141-.646-.141-.205 0-.348.038-.412.073-2.347 1.3-4.72 1.96-7.056 1.96-2.349 0-4.729-.668-7.071-1.983-.063-.036-.213-.077-.423-.077-.232 0-.423.052-.509.104a585.69 585.69 0 0 0-10.656 6.583c-1.134.717-2.506 1.896-2.604 3.462-.155 2.514-.125 5.099-.093 7.6.01.856.021 1.735.025 2.612h42.431zM27.258 99.793c-2.395.01-4.615.926-6.251 2.58-1.617 1.634-2.499 3.827-2.481 6.175.037 5.181 3.483 8.799 8.379 8.799h.032c2.599-.008 4.981-.978 6.708-2.729a8.508 8.508 0 0 0 2.456-6.111c-.055-4.804-4.006-8.713-8.81-8.713h-.033zm95.408.001c-2.475.003-4.758.93-6.433 2.61-1.638 1.643-2.536 3.862-2.527 6.244.013 4.943 3.705 8.67 8.589 8.671 2.617-.004 4.993-.955 6.707-2.678 1.606-1.617 2.485-3.792 2.477-6.127-.021-4.81-3.97-8.721-8.802-8.721v-.57l-.011.571zm-55.816 2.131c.868 3.876 1.954 6.715 3.489 9.139.658 1.036 1.437 1.968 2.254 2.695.813.722 1.646 1.089 2.474 1.089.814 0 1.625-.355 2.413-1.057 3.435-3.051 4.508-7.205 5.642-11.604l.068-.263H66.85zm-13.065.154c2.815 5.358 6.882 8.982 12.667 11.273-1.873-3.142-3.128-6.604-4.009-10.992a.827.827 0 0 0-.279-.249 320.25 320.25 0 0 0-5.2-.034l-3.179.002zm34.02.092c-.691 4.07-1.99 7.663-4.04 11.15 5.321-2.177 9.331-5.763 12.479-11.15h-8.439zm4.273-4.673c1.702 0 3.717-.004 5.763-.036.102-.063.271-.261.301-.362 1.213-4.122 1.211-8.255-.01-12.286-.033-.088-.213-.261-.313-.302a401.055 401.055 0 0 0-5.701-.033l-3.522.003v13.014l3.482.002zm-39.966-.261c2.09.032 4.15.038 5.894.038l3.392-.002V84.229l-3.665-.005c-1.614 0-3.529.006-5.495.04-.122.048-.355.285-.39.402-1.204 4.041-1.212 8.133-.025 12.163.037.127.192.334.289.408zm14.187-.002c4.03.033 8.055.04 11.804.04l5.724-.002c.406-4.127.664-8.523.047-12.931H65.938a51.483 51.483 0 0 0-.018 12.516c.031.091.257.323.379.377zm16.853-17.626c-.817-3.685-1.825-6.397-3.232-8.729-.733-1.215-1.561-2.254-2.455-3.09-.809-.754-1.639-1.137-2.469-1.137-.8 0-1.606.356-2.399 1.058-3.514 3.115-4.676 7.366-5.798 11.897h16.353zm-20.964-.006a32.792 32.792 0 0 1 4.033-11.194c-5.363 2.228-9.397 5.83-12.554 11.194h8.521zm33.963-.064c-2.789-5.292-6.838-8.883-12.609-11.166 1.912 3.211 3.174 6.737 4.014 11.166h8.595zm1.057-29.818c.004-.825.012-1.644.021-2.454.025-2.372.05-4.612-.064-6.879-.09-1.757-.992-3.219-2.61-4.226l-1.94-1.208c-2.887-1.801-5.872-3.663-8.841-5.436-.167-.101-.459-.166-.743-.166-.197 0-.377.032-.48.086-2.348 1.216-4.744 1.833-7.119 1.833-2.404 0-4.863-.633-7.308-1.878a.968.968 0 0 0-.395-.07c-.2 0-.359.042-.429.084-3.192 1.931-6.968 4.233-10.759 6.667-1.919 1.232-2.892 3.05-2.892 5.404l-.001 2.709c-.001 1.663-.003 3.324.001 4.986 0 .17.021.354.046.547h43.513zM75.013 9.436c-5.05.027-9.016 4.059-9.027 9.176-.005 2.186.866 4.265 2.453 5.855a8.875 8.875 0 0 0 6.33 2.609h.061a9.058 9.058 0 0 0 6.43-2.719c1.659-1.684 2.563-3.881 2.544-6.189-.036-4.815-3.96-8.731-8.742-8.731h-.049z"
                      ></path>
                    </svg>