<svg
              xmlns="http://www.w3.org/2000/svg"
              width="147.167"
              height="110.423"
              viewBox="2.833 1.756 147.167 110.423"
            >
              <path fill='red' d="M72.185 111.754c-17.083 0-34.166-.01-51.25-.054-3.661-.012-7.073-.373-10.139-1.074-4.157-.946-6.843-4.24-7.188-8.813-.11-1.472-.104-2.998-.099-4.474l.003-1.095c-.001-7.711.013-15.424.028-23.137.034-17.968.069-36.548-.114-54.821C3.38 13.748 4.893 9.797 7.8 6.86c2.9-2.93 7.12-4.679 11.287-4.679l.352.004c.734.019 1.47.023 2.205.023.601 0 2.994-.015 3.591-.015l.791.003c1.748.011 2.223.528 2.211 2.407-.032 5.121-.033 10.241-.034 15.362l-.002 4.529c0 .192.024.386.064.66l.163 1.25 85.706-.001c1.61 0 2.973.029 3.337.391.359.356.389 1.698.389 3.284v78.48c0 3.157-.029 3.187-3.174 3.187l-42.501.009zM20.465 92.29c-1.149 0-2.298.005-3.447.021l-.638.006c-1.203.007-2.446.014-3.654.329-4.474 1.167-6.327 3.593-6.395 8.371-.058 3.964 1.911 6.285 6.018 7.096 2.386.471 5.041.701 8.116.706 16.38.024 32.765.031 49.146.031l42.471-.007c.438 0 .878-.028 1.326-.058l.62-.038.949-.049V29.421H28.191l.003 58.226c.002.834.004 1.667-.007 2.501-.024 1.713-.438 2.134-2.106 2.143-.64.004-1.279.005-1.919.005l-3.697-.006zm-.419-87.214c-.943 0-1.724.028-2.456.09-6.637.558-11.274 5.636-11.277 12.345-.01 23.844-.006 47.688 0 71.531 0 .349.032.696.073 1.124.02.205.042.431.062.688l.133 1.69 1.415-.934c2.698-1.781 5.542-2.146 8.984-2.146.66 0 1.322.012 1.983.024.674.013 1.349.024 2.022.024 1.287 0 2.332-.047 3.287-.149l.894-.095V5.135h-1c-.708 0-1.405-.016-2.093-.03a92.57 92.57 0 0 0-2.027-.029zM127.158 111.745c-2.049-.003-2.409-.356-2.41-2.363V9.593c0-2.314.261-2.58 2.537-2.582a7512.312 7512.312 0 0 1 19.706 0c2.055.003 2.416.355 2.416 2.356.003 33.262.003 66.524 0 99.788 0 2.273-.309 2.588-2.544 2.59l-9.854.005-9.851-.005zm.573-3.037h18.649V97.182l-6.652.009c-1.242 0-2.474-.004-3.705-.018-.938-.011-1.463-.462-1.558-1.34-.03-.28-.123-1.128 1.237-1.489a2.62 2.62 0 0 1 .628-.058l.674.009 9.428-.003V82.635h-3.012l-4.244.012c-1.063 0-2.127-.007-3.19-.032-.489-.012-.941-.208-1.24-.538a1.115 1.115 0 0 1-.307-.828c.071-.916.538-1.376 1.515-1.489a6.52 6.52 0 0 1 .729-.034c.178 0 .917.016 1.107.016l8.597-.002V65.63l-10.352-.001c-.965-.001-1.463-.416-1.569-1.309-.092-.764.31-1.253 1.19-1.454.278-.063.603-.072.911-.072l.585.004c1.333-.004 8.27-.004 8.27-.004h.999l.004-11.72-7.104.008c-1.106 0-2.212-.005-3.318-.024-.491-.009-.965-.213-1.268-.547-.15-.165-.323-.434-.296-.772.074-.937.539-1.398 1.462-1.454.604-.036 1.21-.045 1.816-.045l2.029.01 6.631-.001v-14.15l-7.096.007c-1.14 0-2.277-.008-3.416-.038-.639-.017-1.399-.267-1.401-1.359-.001-.87.463-1.326 1.418-1.393a11.2 11.2 0 0 1 .799-.022l1.049.008h8.698v-11.75l-6.948.002c-.879 0-1.757-.001-2.636-.004-1-.004-1.761-.222-2.14-.613-.204-.21-.295-.469-.286-.813.029-1.125 1.292-1.369 2.346-1.375h9.623v-6.79h-18.656v98.749z"></path>
              <path fill='red' d="M32.349 99.622c-.837 0-1.487-.196-1.83-.552-.226-.233-.328-.547-.313-.956.014-.375.051-1.371 2.148-1.375 1.993-.005 3.986-.006 5.986-.006l11.053.004.078-1.654c.026-.489.05-.934.05-1.379l.002-5.022c.005-8.484.01-17.257-.032-25.883-.006-1.092-.391-2.168-.805-3.169-.369-.889-.313-1.469.996-2.361 1.429-.974 2.862-1.941 4.295-2.91 4.142-2.798 8.425-5.69 12.537-8.689 2.206-1.608 4.441-2.325 7.25-2.325l.309.003c3.737.068 7.816.101 12.838.101 2.72 0 5.438-.009 8.157-.018 2.716-.009 5.433-.018 8.149-.018l.872.003c1.065.022 1.538.431 1.625 1.409.031.34-.054.628-.253.856-.286.328-.786.526-1.409.556-.461.022-.922.028-1.384.028l-1.943-.012H78.206s-.242 1.064-.271 1.172l-.179.682 10.192 6.955c.378.258.759.513 1.14.767.828.554 1.684 1.125 2.485 1.72.946.7 1.133 1.18.29 2.475-.244.374-.656 1.13-.658 1.968-.021 11.013-.014 22.023-.004 33.035.001.244.055.435.111.636.023.083.052.182.081.307l.184.767 8.752-.002c1.881 0 3.754.001 5.627.005.866.002 1.544.206 1.906.576.221.225.324.514.317.883-.025 1.286-1.496 1.426-2.127 1.426-12.284.004-24.568.005-36.853.005s-24.566-.004-36.85-.008zm20.142-2.982H66.52l-.004-5.658c-.004-2.307-.009-4.613.014-6.918.013-1.335.519-1.844 1.867-1.879a72.79 72.79 0 0 1 1.751-.019c.647 0 1.295.006 1.942.013.842.009 1.402.169 1.711.487.331.342.481.972.462 1.927-.054 2.579-.042 5.205-.031 7.744.005 1.091.01 2.185.01 3.282v1h13.961V60.911h-35.71l-.002 35.729zm3.613-40.297l.766 1.134.296.451h26.662l.269-.581c.056-.123.489-1.122.489-1.122l-14.201-9.678-14.281 9.796zM11.547 20.967c-1.146-.08-1.289-1.196-1.271-1.854.137-5.268 4.721-9.813 10.01-9.925h.003c1.111 0 1.597.384 1.756 1.324a.992.992 0 0 1-.189.786c-.275.369-.787.624-1.405.699-4.472.542-6.821 2.862-7.39 7.305-.098.762-.418 1.67-1.391 1.67l-.123-.005z"></path>
              <path fill='red' d="M78.827 77.755c-1.061 0-2.122-.007-3.183-.022-1.386-.021-1.775-.425-1.805-1.874-.019-1.016-.013-2.036-.008-3.055l.005-1.361-.005-1.353c-.006-1.021-.012-2.043.013-3.063.033-1.313.488-1.789 1.739-1.82a138.741 138.741 0 0 1 6.52-.002c1.33.03 1.922.669 1.921 2.07a528.055 528.055 0 0 1-.066 8.506c-.025 1.479-.48 1.936-1.948 1.954-1.06.013-2.121.02-3.183.02zm-2.098-9.552v6.59h4.266V68.01l-4.266.193zM62.085 77.755c-1.061 0-2.122-.007-3.182-.022-1.386-.021-1.775-.425-1.806-1.874a111.843 111.843 0 0 1-.01-3.065l.005-1.351-.005-1.357c-.006-1.02-.012-2.039.013-3.058.033-1.313.488-1.79 1.738-1.821a138.76 138.76 0 0 1 6.521-.002c1.332.03 1.924.669 1.922 2.069a516.432 516.432 0 0 1-.068 8.506c-.024 1.48-.479 1.937-1.945 1.955-1.06.013-2.121.02-3.183.02zm-2.1-9.552v6.59h4.265V68.01l-4.265.193z"></path>
            </svg>