<svg version="1.1" xmlns="http://www.w3.org/2000/svg" width="1024" height="1024" viewBox="0 0 1024 1024" fill="#5b8c51">
<path d="M985.114 801.12l-200.646-200.644c-23.952-23.95-62.916-23.95-86.87 0l-52.176 52.176c-16.348 16.348-21.516 39.69-15.546 60.482l-19.686 19.686c-0.006 0.006-0.010 0.010-0.016 0.016-13.98 13.996-101.046-7.482-206.29-112.726-105.228-105.226-126.712-192.278-112.732-206.284 0-0.004 0.004-0.004 0.004-0.004l19.704-19.702c5.562 1.598 11.302 2.414 17.046 2.414 15.73 0 31.458-5.986 43.436-17.96l52.176-52.176c23.95-23.95 23.95-62.916 0-86.868l-200.646-200.648c-11.6-11.6-27.026-17.988-43.432-17.988-16.41 0-31.83 6.392-43.432 17.988l-52.18 52.18c-16.348 16.348-21.516 39.692-15.546 60.482 0 0-16.688 16.848-17.518 17.912-55.506 61.698-65.92 158.836-29.122 274.974 36.034 113.714 113.714 234.176 218.734 339.19 105.016 105.016 225.478 182.696 339.192 218.734 45.68 14.474 88.414 21.646 127.22 21.646 63.626 0 116.674-19.296 154.7-57.32l10.948-10.948c5.48 1.576 11.204 2.426 17.064 2.426 16.41 0 31.834-6.392 43.432-17.988l52.18-52.18c23.95-23.95 23.95-62.918 0.002-86.87zM179.44 82.314l200.648 200.65-52.148 52.204c0 0-0.010-0.010-0.028-0.028l-200.65-200.646 52.178-52.18zM818.058 923.246c-0.004 0.004-0.006 0.006-0.010 0.010-44.188 44.182-122.292 51.48-219.922 20.54-104.504-33.116-216.13-105.428-314.312-203.612-98.186-98.184-170.498-209.806-203.612-314.312-30.94-97.634-23.642-175.74 20.55-219.934l5.544-5.544 155.714 155.712-14.282 14.282c-0.010 0.010-0.018 0.022-0.030 0.034-59.17 59.244 11.926 192.294 112.756 293.124 75.468 75.468 168.986 134.28 236.102 134.28 22.568 0 42.152-6.65 57.056-21.556 0.006-0.006 0.010-0.010 0.016-0.016l14.266-14.266 155.714 155.712-5.55 5.546zM889.504 896.736l-200.648-200.648 52.176-52.176 200.648 200.644c0 0-52.158 52.198-52.176 52.18zM777.636 246.368c-58.418-58.418-136.084-90.588-218.688-90.586-16.962 0-30.712 13.75-30.712 30.712s13.752 30.712 30.712 30.712c66.2-0.004 128.438 25.78 175.256 72.594 46.812 46.812 72.59 109.050 72.588 175.248 0 16.962 13.75 30.716 30.712 30.716 16.96 0 30.712-13.75 30.712-30.708 0.002-82.608-32.17-160.27-90.58-218.688zM887.79 136.214c-87.846-87.842-204.634-136.218-328.854-136.214-16.962 0-30.712 13.752-30.712 30.712 0 16.962 13.752 30.712 30.712 30.712 107.814-0.004 209.176 41.984 285.418 118.222 76.236 76.236 118.222 177.598 118.22 285.412 0 16.962 13.75 30.712 30.712 30.712 16.96 0 30.712-13.75 30.712-30.708 0.004-124.224-48.372-241.008-136.208-328.848zM667.474 356.52c-29.412-29.412-66.93-44.954-108.512-44.954 0 0-0.010 0-0.012 0-16.962 0.004-30.712 13.752-30.708 30.716 0.004 16.962 13.756 30.712 30.716 30.708 0.004 0 0.006 0 0.010 0 25.288 0 47.186 9.072 65.078 26.962 17.638 17.64 26.962 40.15 26.958 65.088-0.004 16.962 13.75 30.712 30.708 30.716h0.004c16.962 0 30.708-13.75 30.712-30.708 0.002-41.584-15.54-79.112-44.954-108.528z"></path>
</svg>
