<svg version="1.1" xmlns="http://www.w3.org/2000/svg" width="1024" height="1024" viewBox="0 0 1024 1024" fill="#5b8c51">
<path d="M893.624 987.932l-134.998-285.562c-2.694-5.698-7.362-10.064-12.96-12.446l-67.16-29.898 116.37-195.036c0.278-0.468 0.54-0.942 0.79-1.426 23.136-45.158 34.868-93.956 34.868-145.030 0-85.918-33.692-166.466-94.87-226.804-61.168-60.324-142.204-92.906-228.174-91.698-83.496 1.158-162.112 34.696-221.37 94.44-59.252 59.74-92.156 138.626-92.652 222.132-0.304 51.030 11.754 101.846 34.862 146.958 0.248 0.482 0.51 0.958 0.788 1.426l116.368 195.034-67.548 30.062c-5.526 2.458-9.986 6.816-12.57 12.284l-134.994 285.564c-4.518 9.55-2.612 20.906 4.776 28.46 7.386 7.554 18.69 9.718 28.344 5.422l169.116-75.292 169.116 75.292c6.542 2.91 14.012 2.91 20.554 0l169.116-75.292 169.116 75.292c3.304 1.47 6.802 2.186 10.27 2.186 6.662 0 13.216-2.636 18.074-7.606 7.382-7.556 9.286-18.908 4.768-28.462zM272.946 439.812c-19.46-38.264-29.198-79.61-28.94-122.906 0.856-144.858 119.372-264.34 264.188-266.346 72.332-0.972 140.526 26.398 191.986 77.152 51.476 50.766 79.822 118.534 79.822 190.824 0 42.718-9.738 83.514-28.946 121.276l-217.356 364.296c-6.636 11.12-17.384 12.32-21.698 12.32-4.316 0-15.064-1.2-21.698-12.32l-217.358-364.296zM701.668 895.782c-6.542-2.91-14.012-2.91-20.554 0l-169.116 75.292-169.116-75.292c-6.542-2.91-14.012-2.91-20.554 0l-117.156 52.16 101.876-215.498 64.516-28.712 75.336 126.266c13.808 23.144 38.144 36.962 65.094 36.962s51.286-13.818 65.094-36.96l75.336-126.266 64.522 28.722 101.87 215.488-117.148-52.162zM512.008 203.214c-63.588 0-115.318 51.73-115.318 115.316s51.73 115.316 115.318 115.316c63.586 0.002 115.316-51.73 115.316-115.316s-51.73-115.316-115.316-115.316zM512.008 383.314c-35.722 0.002-64.786-29.058-64.786-64.784 0-35.722 29.062-64.784 64.786-64.784 35.722 0 64.784 29.062 64.784 64.784s-29.062 64.784-64.784 64.784z"></path>
</svg>
