<svg
                      xmlns="http://www.w3.org/2000/svg"
                      viewBox="0 0 150 150"
                    >
                      <g fillRule="evenodd" clipRule="evenodd">
                        <path fill='red' d="M36.713 78.734c.368-.682.616-1.324 1.017-1.85a198.424 198.424 0 0 1 4.726-6.003c.519-.63.491-1.075.169-1.81a245.698 245.698 0 0 1-3.833-9.328c-.279-.718-.546-1.088-1.383-1.184-2.527-.29-5.039-.71-7.558-1.074-2.013-.29-2.68-1.001-2.689-2.97-.013-2.939-.012-5.879.005-8.819.012-1.997.62-2.672 2.658-2.979 2.565-.386 5.14-.715 7.693-1.164.44-.077.981-.552 1.164-.978a283.827 283.827 0 0 0 3.941-9.599c.18-.463.102-1.238-.183-1.636-1.537-2.15-3.188-4.219-4.778-6.332-1.107-1.472-1.048-2.276.277-3.576 2.308-2.264 4.639-4.505 6.963-6.752 1.17-1.131 2.04-1.21 3.358-.224 2.118 1.583 4.232 3.173 6.297 4.824.673.54 1.142.538 1.938.177a174.702 174.702 0 0 1 9.024-3.787c.799-.311 1.159-.641 1.26-1.504a224.69 224.69 0 0 1 1.118-7.997c.27-1.731.994-2.3 2.799-2.306 3.036-.012 6.075-.013 9.112-.002 1.77.006 2.546.706 2.804 2.511.385 2.665.707 5.339 1.166 7.989.079.461.621 1.006 1.082 1.21 2.944 1.294 5.965 2.421 8.874 3.788.956.45 1.521.439 2.31-.194 1.983-1.596 4.024-3.123 6.06-4.653 1.375-1.035 2.277-.979 3.485.216a673.538 673.538 0 0 1 6.546 6.548c1.258 1.278 1.299 2.311.175 3.76-1.591 2.051-3.244 4.055-4.777 6.146-.281.383-.317 1.163-.136 1.63a268.41 268.41 0 0 0 3.891 9.462c.198.456.783.961 1.261 1.046 2.552.455 5.126.788 7.692 1.155 1.861.266 2.574 1.034 2.586 2.917.021 3.086.024 6.173-.001 9.259-.016 1.791-.733 2.553-2.525 2.813-2.616.38-5.237.723-7.84 1.177-.438.076-.975.557-1.157.982a288.02 288.02 0 0 0-3.94 9.599c-.177.459-.081 1.23.206 1.63 1.51 2.11 3.131 4.139 4.695 6.21 1.175 1.557 1.13 2.356-.209 3.711a842.022 842.022 0 0 1-6.34 6.339c-1.314 1.298-2.688 1.383-4.193.225a234.788 234.788 0 0 1-5.873-4.648c-.659-.542-1.135-.547-1.938-.181-2.97 1.352-5.996 2.576-9.027 3.785-.691.276-1.12.499-1.217 1.363-.291 2.627-.72 5.236-1.094 7.852-.278 1.948-.955 2.576-2.861 2.585-2.988.016-5.977.016-8.965.001-1.951-.008-2.645-.627-2.917-2.523-.38-2.664-.724-5.337-1.176-7.989-.075-.435-.552-.962-.975-1.148-3.075-1.36-6.204-2.603-9.269-3.984-.753-.342-1.213-.292-1.827.19-2.037 1.608-4.108 3.172-6.176 4.741-1.479 1.121-2.317 1.09-3.593-.173a609.492 609.492 0 0 1-6.957-6.969c-.387-.395-.606-.954-.945-1.505zm66.841-61.625c-2.229 1.688-4.368 3.311-6.511 4.929-1.615 1.22-2.357 1.253-4.129.182-3.457-2.092-7.113-3.698-11.087-4.51-1.488-.304-2.293-1.166-2.46-2.684-.268-2.433-.612-4.856-.86-7.291-.093-.894-.395-1.303-1.361-1.249a38 38 0 0 1-3.965.004c-.947-.045-1.368.206-1.484 1.252-.279 2.527-.645 5.051-1.148 7.542-.136.673-.816 1.679-1.36 1.758-4.511.661-8.493 2.559-12.326 4.877-1.87 1.131-2.308 1.08-4.054-.285-2.107-1.646-4.225-3.28-6.375-4.947l-4.415 4.617c1.72 2.271 3.342 4.473 5.031 6.623.974 1.239 1.084 2.448.242 3.778-2.324 3.674-3.958 7.636-4.816 11.901-.215 1.072-.861 1.613-1.851 1.809-.719.143-1.454.2-2.182.293l-6.752.861v6.401c2.751.332 5.414.698 8.086.958 1.587.155 2.504.899 2.824 2.47.838 4.123 2.506 7.909 4.721 11.471 1.012 1.628.965 2.29-.234 3.833-1.674 2.155-3.353 4.307-5.063 6.504l4.422 4.63c2.277-1.724 4.447-3.313 6.557-4.979 1.286-1.016 2.525-1.111 3.907-.241 3.507 2.213 7.276 3.808 11.34 4.66 1.444.304 2.175 1.161 2.375 2.593.354 2.521.791 5.028 1.105 7.553.103.826.431 1.084 1.21 1.062 1.371-.038 2.746-.072 4.113.004 1.015.057 1.362-.338 1.454-1.316.215-2.288.526-4.568.82-6.851.297-2.287.648-2.652 2.946-3.156 3.812-.836 7.407-2.214 10.633-4.429 1.3-.891 2.361-.802 3.575.169 2.284 1.828 4.65 3.552 6.543 4.985l4.965-4.22c-1.762-2.326-3.392-4.529-5.077-6.687-.93-1.19-1.063-2.372-.259-3.653 2.342-3.722 3.941-7.733 4.945-12.019.165-.703 1.106-1.37 1.845-1.748.657-.335 1.53-.244 2.306-.341l6.526-.822v-6.413c-2.734-.338-5.352-.678-7.975-.981-1.913-.221-2.521-.689-2.906-2.513-.875-4.164-2.395-8.055-4.825-11.566-.767-1.106-.77-2.105.101-3.204 1.792-2.261 3.5-4.588 5.294-6.958l-4.411-4.656zM28.644 148.141c-7.888 0-15.776.003-23.664-.001-2.479-.001-3.014-.533-3.019-3.044-.009-4.508-.024-9.015.007-13.522.048-6.877 4.696-11.504 11.566-11.516 10.142-.016 20.283-.021 30.425-.002 6.49.013 11.303 4.838 11.338 11.343.025 4.557.008 9.111.001 13.669-.003 2.519-.557 3.067-3.137 3.07-7.84.008-15.679.003-23.517.003zM6.483 143.58h44.139c0-4.227.021-8.331-.006-12.437-.025-3.832-2.85-6.65-6.717-6.659a6608.765 6608.765 0 0 0-30.849.001c-3.755.01-6.575 2.811-6.633 6.596-.059 3.867-.015 7.737-.011 11.606.001.282.048.562.077.893zM121.489 148.144c-7.734 0-15.469.001-23.203-.001-2.905 0-3.347-.442-3.344-3.284.004-4.503-.016-9.007.005-13.511.03-6.535 4.778-11.278 11.324-11.29 10.131-.016 20.265-.016 30.396.002 6.561.012 11.29 4.695 11.356 11.267.048 4.65.022 9.301.011 13.951-.006 2.273-.6 2.86-2.901 2.862-7.881.009-15.763.003-23.644.004zm21.747-4.537c0-4.675.227-9.271-.079-13.833-.205-3.078-3.139-5.275-6.28-5.285-10.372-.03-20.748-.031-31.123-.002-3.726.009-6.566 2.887-6.631 6.626-.036 2.104-.007 4.207-.007 6.312-.002 2.043-.002 4.084-.002 6.183l44.122-.001zM121.342 119.571c-8.569-.032-15.549-7.073-15.549-15.687 0-8.648 7.072-15.582 15.829-15.519 8.58.062 15.63 7.072 15.589 15.502-.042 8.736-7.118 15.738-15.869 15.704zm.082-4.432c6.227.03 11.333-5.024 11.343-11.231.01-5.984-5.079-11.045-11.18-11.118-6.226-.075-11.333 4.87-11.367 11.007a11.24 11.24 0 0 0 11.204 11.342zM28.49 119.565c-8.687-.005-15.743-6.952-15.708-15.466.035-8.684 7.168-15.766 15.853-15.738 8.726.026 15.598 6.896 15.566 15.562a15.67 15.67 0 0 1-15.711 15.642zm11.286-15.409c.025-6.234-5.023-11.341-11.239-11.367-6.215-.027-11.326 4.993-11.308 11.106.02 6.224 5.11 11.447 11.192 11.485 6.244.039 11.329-4.988 11.355-11.224z"></path>
                        <path fill='red' d="M98.874 50.168c-.032 13.182-10.79 23.854-23.992 23.801-13.122-.053-23.784-10.936-23.761-24.253.023-13.059 10.827-23.779 23.92-23.732 13.148.046 23.866 10.921 23.833 24.184zm-43.323.01c-.012 10.612 8.713 19.339 19.361 19.368 10.742.028 19.5-8.644 19.536-19.347.038-10.668-8.763-19.555-19.366-19.556-10.766 0-19.519 8.755-19.531 19.535z"></path>
                        <path fill='red' d="M69.512 55.572c4.042-3.59 7.993-7.098 11.941-10.607 1.246-1.105 2.475-2.228 3.735-3.315 1.146-.99 2.469-.93 3.362.105.808.934.716 2.105-.405 3.112A3204.949 3204.949 0 0 1 70.367 60.68c-1.334 1.177-2.754.905-3.687-.666a547.056 547.056 0 0 1-5.444-9.394c-.734-1.293-.385-2.796.679-3.367 1.11-.596 2.507-.158 3.26 1.088 1.189 1.968 2.334 3.961 3.505 5.94.244.411.518.804.832 1.291z"></path>
                      </g>
                      </svg>