<svg
              xmlns="http://www.w3.org/2000/svg"
              viewBox="0 0 150 150"
            >
              <g fillRule="evenodd" clipRule="evenodd">
                <path fill='red' d="M29.424 21.695c0-1.808-.012-3.394.003-4.979.02-1.938.769-2.684 2.731-2.695 2.623-.017 5.245-.004 7.959-.004.032-.465.069-.797.076-1.13.13-6.262 4.758-11.434 11.04-11.696 6.844-.287 13.71-.202 20.563-.071 5.767.11 11.859 4.935 11.552 12.142-.012.285.035.573.066 1.006 2.636 0 5.207-.009 7.776.002 2.259.009 2.909.676 2.911 2.938.003 1.391.007 2.782.015 4.173.003.096.044.193.125.525h1.664c5.813-.001 11.627.016 17.441-.01 2.588-.012 4.903.645 6.818 2.461 1.513 1.437 2.388 3.208 2.436 5.274.08 3.377.067 6.758.01 10.135-.029 1.664-1.068 2.495-2.624 2.276-1.418-.2-1.851-1.163-1.851-2.448.003-2.982.015-5.964-.005-8.945-.014-2.513-1.395-4.147-3.857-4.177-6.654-.082-13.309-.027-20.174-.027 0 1.919.004 3.79 0 5.66-.005 2.4-.618 3.041-2.954 3.041-19.628.003-39.256.003-58.883.001-2.445-.001-3.047-.62-3.06-3.105-.009-1.689-.014-3.378-.024-5.067 0-.097-.036-.195-.083-.429-.33-.041-.704-.129-1.077-.129-6.013-.008-12.025-.005-18.038-.005-.149 0-.298.002-.446.009-2.662.146-4.088 1.615-4.089 4.268-.006 15.4-.003 30.804-.003 46.209 0 20.919-.002 41.837.003 62.754 0 3.735 1.273 5.026 4.981 5.026 34.236.006 68.474.006 102.708 0 3.752 0 4.999-1.262 5.001-4.999.003-4.571-.027-9.144.03-13.714.011-.741.183-1.731.671-2.15.525-.45 1.688-.706 2.253-.422.689.354 1.465 1.35 1.48 2.083.12 5.214.181 10.439.012 15.651-.15 4.639-4.026 7.852-9.17 7.859-12.77.018-25.54.01-38.31.01-21.616 0-43.231.032-64.846-.065-1.849-.007-3.872-.563-5.501-1.442-2.801-1.515-3.854-4.183-3.841-7.386.05-13.766.022-27.528.022-41.293.001-22.658-.002-45.318.006-67.977.002-5.699 3.455-9.119 9.215-9.134 5.813-.016 11.626-.005 17.441-.005l1.827.001zm60.13-2.834H33.826v11.947h55.728V18.861zm-44.731-4.982h33.964c.303-4.596-2.526-8.002-7.002-8.254-3.517-.198-7.052-.092-10.579-.091-3.178.001-6.369-.108-9.535.105-4.507.302-7.385 3.862-6.848 8.24z"></path>
                <path fill='red' d="M77.943 89.724c.496-2.021.988-4.354 1.662-6.636.335-1.128.083-1.825-.764-2.577-1.596-1.418-3.107-2.933-4.626-4.434-1.348-1.332-1.367-2.334-.053-3.719 1.883-1.98 3.837-3.895 5.673-5.917.383-.421.625-1.228.527-1.785-.471-2.635-1.085-5.246-1.642-7.865-.377-1.772.297-2.904 2.063-3.319 1.98-.464 3.97-.917 5.972-1.25.849-.142 1.173-.536 1.342-1.298.403-1.841.84-3.675 1.291-5.505.521-2.12 1.609-2.775 3.692-2.263 2.168.532 4.351 1.011 6.496 1.623.809.231 1.272.034 1.801-.537 1.487-1.603 3.024-3.159 4.547-4.727 1.563-1.609 2.571-1.633 4.142-.08 1.767 1.747 3.544 3.482 5.261 5.278.687.72 1.314.971 2.338.716 2.599-.646 5.234-1.143 7.859-1.683 1.803-.371 2.575.104 3.003 1.917.454 1.931.917 3.866 1.229 5.823.157.98.658 1.306 1.509 1.489 1.892.404 3.774.854 5.657 1.295 1.997.468 2.633 1.456 2.157 3.468-.498 2.125-1.016 4.247-1.605 6.347-.234.829-.101 1.378.54 1.961 1.581 1.438 3.104 2.937 4.636 4.426 1.727 1.681 1.749 2.548.117 4.25-1.754 1.83-3.476 3.692-5.302 5.447-.755.726-.886 1.427-.668 2.372.558 2.416 1.059 4.846 1.586 7.271.472 2.174-.136 3.142-2.342 3.629-1.79.397-3.585.799-5.393 1.111-.952.165-1.451.574-1.641 1.561-.337 1.751-.808 3.478-1.221 5.215-.543 2.269-1.608 2.913-3.904 2.342-2.07-.516-4.148-.995-6.198-1.585-.845-.243-1.377-.058-1.952.57-1.515 1.646-3.083 3.238-4.646 4.836-1.401 1.432-2.381 1.459-3.813.092-1.941-1.852-3.893-3.692-5.775-5.605-.645-.654-1.263-.79-2.114-.591-2.511.585-5.037 1.113-7.559 1.662-2.226.487-2.977.024-3.483-2.206-.426-1.887-.751-3.798-1.257-5.664-.13-.483-.696-1.064-1.178-1.205-2.045-.596-4.139-1.023-6.204-1.558-1.265-.327-1.796-1.096-1.76-2.692zm60.067-16.495c-1.574-1.744-3.004-3.463-4.583-5.032-1.031-1.025-1.405-2.032-.994-3.461.607-2.116 1.066-4.276 1.599-6.462-1.916-.472-3.631-.995-5.382-1.296-1.733-.298-2.584-1.242-2.871-2.922-.316-1.841-.743-3.663-1.151-5.639-2.42.512-4.709.921-6.956 1.495-1.729.441-3.052.102-4.264-1.255-1.608-1.8-3.364-3.468-4.749-4.879-1.783 1.596-3.486 2.981-5.018 4.536-1.068 1.085-2.135 1.439-3.602 1.021-2.078-.593-4.194-1.055-6.379-1.594-.474 1.939-.993 3.7-1.317 5.495-.305 1.674-1.252 2.475-2.858 2.757-1.843.325-3.672.743-5.692 1.156.538 2.495 1.019 4.862 1.565 7.215.344 1.482.087 2.686-1.082 3.766-1.849 1.71-3.596 3.53-5.174 5.092 1.552 1.688 2.919 3.339 4.464 4.804 1.182 1.122 1.608 2.229 1.118 3.832-.618 2.025-1.03 4.112-1.552 6.26 1.847.452 3.558.975 5.308 1.27 1.869.318 2.713 1.365 2.989 3.167.275 1.791.728 3.557 1.123 5.427 2.496-.529 4.835-.945 7.132-1.535 1.631-.418 2.838-.089 3.978 1.19 1.637 1.835 3.433 3.527 4.863 4.977 1.831-1.646 3.557-3.076 5.134-4.655.997-1 1.975-1.31 3.335-.922 2.126.608 4.291 1.077 6.513 1.621.455-1.875.97-3.588 1.271-5.339.31-1.793 1.304-2.665 3.038-2.952 1.802-.298 3.582-.71 5.549-1.109-.523-2.465-.961-4.841-1.545-7.181-.393-1.576-.041-2.777 1.145-3.881 1.81-1.693 3.538-3.478 5.045-4.967zM22.826 78.626h30.855c0-2.825-.003-5.588.001-8.351.001-.596-.022-1.197.055-1.785.17-1.298 1.018-1.925 2.259-1.903 1.176.02 1.97.648 2.129 1.877.07.54.066 1.09.067 1.636.003 3.429.013 6.858-.01 10.288-.015 2.133-.666 2.781-2.755 2.783-11.479.008-22.958.012-34.438.004-2.083 0-2.771-.681-2.773-2.775-.011-11.628-.01-23.257.004-34.885.003-2.089.674-2.719 2.825-2.72 11.379-.007 22.759-.004 34.139 0 1.979 0 2.997.795 2.977 2.298-.019 1.472-.948 2.193-2.917 2.195-10.187.008-20.375.003-30.562.003h-1.856v31.335z"></path>
                <path fill='red' d="M80.634 126.969c-2.767 2.538-5.314 4.824-7.799 7.177-.983.931-2.028 1.358-3.199.604-1.133-.729-1.142-1.917-.749-3.074 3.713-10.942 7.437-21.885 11.177-32.819.541-1.582 1.731-2.197 3.098-1.718 1.335.467 1.699 1.474 1.1 3.179-2.704 7.673-5.419 15.341-8.127 23.012-.16.455-.297.919-.556 1.723 1.624-1.474 2.896-2.818 4.368-3.889.756-.549 1.978-1.006 2.777-.776.683.198 1.301 1.373 1.53 2.229.48 1.795.688 3.663 1.08 5.928.333-.802.528-1.227.687-1.663 2.389-6.626 4.756-13.261 7.183-19.871.258-.699.751-1.545 1.357-1.813.642-.282 1.685-.188 2.318.163 1.028.571 1.118 1.689.737 2.773-1.151 3.275-2.322 6.545-3.48 9.818-2.364 6.686-4.752 13.364-7.065 20.072-.435 1.262-1.147 1.995-2.449 1.937-1.409-.06-1.869-1.139-2.087-2.332-.629-3.466-1.238-6.931-1.901-10.66zM132.115 127.977c.166-1.659.345-3.32.497-4.983.097-1.075.296-2.053 1.443-2.561 1.163-.515 2.001.037 2.832.726 1.375 1.136 2.755 2.27 4.464 3.677-.306-.833-.458-1.284-.637-1.724-3.069-7.587-6.144-15.172-9.216-22.755-.651-1.607-.286-2.709 1.104-3.304 1.26-.539 2.312-.004 2.971 1.61 4.397 10.741 8.776 21.492 13.167 32.235.45 1.097.62 2.146-.501 2.928-1.035.72-1.975.311-2.845-.403-2.717-2.231-5.44-4.461-8.389-6.875-.303 2.431-.58 4.619-.85 6.81a203.836 203.836 0 0 0-.452 3.847c-.145 1.386-.767 2.388-2.231 2.566-1.46.176-2.12-.813-2.595-1.992a78648.03 78648.03 0 0 0-10.537-26.078c-.444-1.104-.899-2.205-1.332-3.313-.609-1.567-.175-2.902 1.083-3.396 1.267-.498 2.51.154 3.142 1.725 2.625 6.538 5.229 13.082 7.843 19.624.218.546.456 1.085.685 1.627.117.004.236.007.354.009zM38.369 131.01c-7.451 0-14.901.003-22.352-.005-.643 0-1.307.027-1.924-.117-1.167-.275-1.744-1.101-1.689-2.298.051-1.143.682-1.836 1.815-2.019.437-.074.89-.068 1.334-.068 15.2-.006 30.398-.021 45.597.034.898.002 2.005.358 2.616.959.429.418.469 1.686.148 2.291-.314.593-1.296 1.128-2.005 1.155-3.373.122-6.753.065-10.13.067-4.469.004-8.94.001-13.41.001zM38.341 110.829c7.751 0 15.502.01 23.254-.012 1.362-.005 2.356.417 2.623 1.854.286 1.541-.765 2.625-2.606 2.638-4.124.028-8.249.011-12.373.011-11.329 0-22.659 0-33.987-.009-1.817 0-2.69-.62-2.845-1.953-.174-1.511.721-2.501 2.382-2.52 3.08-.034 6.162-.016 9.242-.019h14.311l-.001.01zM38.071 99.567c-7.748 0-15.497.005-23.246-.003-1.702-.003-2.629-.761-2.675-2.125-.047-1.4.974-2.34 2.652-2.348 4.222-.022 8.444-.012 12.666-.012 11.226 0 22.452 0 33.677.005 1.898.002 2.766.648 2.849 2.086.089 1.521-.787 2.383-2.526 2.391-5.067.018-10.133.011-15.2.011-2.731.002-5.463 0-8.195 0-.002-.002-.002-.003-.002-.005zM37.532 67.466L55.519 54.35c.281-.206.553-.423.843-.614 1.234-.816 2.637-.71 3.351.244.771 1.031.502 2.489-.712 3.379a4920.414 4920.414 0 0 1-20.202 14.766c-1.796 1.305-3.049.959-4.05-.998-1.785-3.49-3.57-6.979-5.339-10.475-.8-1.58-.556-2.645.702-3.285 1.329-.675 2.365-.226 3.168 1.405 1.4 2.844 2.786 5.694 4.252 8.694zM88.068 73.565c-.017-11.197 9.16-20.443 20.331-20.481 11.189-.038 20.551 9.309 20.522 20.489-.029 11.171-9.274 20.372-20.457 20.362-11.226-.008-20.38-9.15-20.396-20.37zm36.542-.071c-.018-8.754-7.229-15.951-15.957-15.924-8.728.026-15.929 7.274-15.896 16.002.031 8.777 7.188 15.891 15.975 15.879 8.784-.012 15.898-7.162 15.878-15.957z"></path>
                <path fill='red' d="M105.556 77.338c3.473-3.698 6.807-7.232 10.114-10.79.775-.833 1.627-1.32 2.766-.935 1.515.513 1.943 2.364.794 3.646-1.854 2.068-3.774 4.077-5.668 6.109-2.098 2.25-4.188 4.506-6.301 6.743-1.501 1.585-2.74 1.509-4.036-.264a746.862 746.862 0 0 1-5.73-7.971c-.923-1.296-.757-2.796.343-3.545 1.022-.696 2.381-.32 3.327.965 1.439 1.953 2.854 3.923 4.391 6.042z"></path>
              </g>
            </svg>