<svg
              xmlns="http://www.w3.org/2000/svg"
              viewBox="0 0 150 150"
            >
              <g fillRule="evenodd" clipRule="evenodd">
                <path fill='red' d="M3.997 147.731c-1.32-.7-1.738-1.789-1.729-3.272.049-8.995.024-17.99.024-26.985 0-3.062.61-3.679 3.621-3.679l72.292-.006h1.587V58.087H55.745c-.03.485-.086.981-.087 1.478-.005 5.681-.002 11.361-.003 17.043-.002 6.352-4.215 10.537-10.609 10.54-3.684.002-7.367.001-11.138.001v4.419c1.497.461 2.884.771 4.154 1.344.369.167.565 1.081.556 1.649-.026 1.637-1.023 2.115-4.793 2.349 0 1.375.006 2.771-.001 4.169-.011 1.908-.907 2.991-2.456 2.987-1.533-.007-2.384-1.074-2.396-3.024-.008-1.322-.002-2.644-.002-4.196-.797 0-1.53.026-2.262-.008-1.564-.071-2.573-1.048-2.573-2.451.001-1.424.991-2.348 2.59-2.392.697-.02 1.394-.003 2.169-.003v-4.771c-.522-.023-1.022-.067-1.523-.068-3.125-.008-6.25.012-9.374-.008-4.815-.029-8.741-2.999-9.771-7.698-1.749-7.982-3.625-15.956-4.873-24.022-.856-5.537-.841-11.221-1.029-16.845-.153-4.586-.035-9.183-.03-13.774.002-2.333.819-3.165 3.164-3.167 10.463-.006 20.925 0 31.388.001h1.812v-8.052c0-1.137-.001-2.272.001-3.409.005-2.352.76-3.08 3.167-3.076 2.119.005 4.239.001 6.446.001.026-.579.063-1.038.065-1.497.017-2.613.752-3.335 3.411-3.336h46.158c3.215 0 3.82.605 3.804 3.794-.001.281.024.563.046 1.038 2.175 0 4.331.005 6.49-.001 2.38-.006 3.142.738 3.143 3.101V21.64h1.554c5.917-.001 11.834-.006 17.751-.003 5.528.004 9.349 4.313 8.904 9.781-.65 7.968-1.4 15.94-1.65 23.924-.303 9.649 1.483 19.109 3.38 28.543 1.92 9.544 3.682 19.121 5.361 28.711.519 2.971.537 6.027.798 9.045.057.652.177 1.297.268 1.944v17.33c-1.151 3.396-3.425 5.669-6.818 6.819-45.647-.003-91.294-.003-136.94-.003zm3.237-9.682v4.841h1.644l103.831.002c8.759 0 17.517.006 26.277-.002 2.89-.002 3.912-1.045 3.93-3.954.005-1.039-.012-2.083.001-3.124.119-9.337-.12-18.67-1.745-27.878-1.553-8.797-3.426-17.538-5.224-26.291-2.139-10.427-3.402-20.929-2.716-31.584.423-6.563 1.04-13.113 1.598-19.666.204-2.396-.845-3.711-3.223-3.876-.66-.045-1.325-.023-1.987-.023l-23.428-.001H7.135c0 1.985.006 3.776-.001 5.567-.031 8.001-.229 16.034 1.16 23.938 1.342 7.628 3.086 15.187 4.751 22.753.579 2.632 2.042 3.539 5.038 3.541 9.087.006 18.174.008 27.261.002 3.992-.003 5.458-1.492 5.458-5.523.002-6.817-.005-13.635-.003-20.453.001-2.344.813-3.157 3.155-3.161 3.551-.006 7.103 0 10.654 0 5.681 0 11.363-.004 17.043.002 2.22.003 3.07.881 3.062 3.118-.002.615-.008 1.23-.008 1.846 0 19.128-.005 38.255.012 57.382.002 1.155-.103 2.271-1.25 2.782-.7.312-1.558.362-2.345.363-23.959.017-47.916.014-71.872.014H7.233v4.788c.518.022.935.06 1.353.06 10.322.002 20.643 0 30.964 0 4.498 0 8.996-.013 13.493.014 1.502.01 2.522.954 2.593 2.27.073 1.354-.969 2.436-2.49 2.56-.423.033-.852.013-1.278.013-14.345 0-28.691-.002-43.037-.004H7.228v4.843l11.145.001c3.504.002 7.008-.019 10.511.016 1.501.014 2.45.977 2.465 2.359.015 1.371-.934 2.353-2.402 2.461-.423.03-.852.008-1.277.008-6.768-.003-13.537-.004-20.436-.004zm94.473-126.022c0 .534.003.995 0 1.455-.012 2.571-.736 3.309-3.271 3.311-4.495.005-8.99.004-13.485.004-11.214-.001-22.429 0-33.644-.006-2.083-.002-2.932-.842-2.968-2.901-.01-.602-.001-1.201-.001-1.833h-4.771v9.493h62.875v-9.522l-4.735-.001zM60.454 7.201h-7.159v4.631h7.159V7.201zm36.365 0H89.67v4.624h7.149V7.201zm-24.312.011h-7.095v4.635h7.095V7.212zm12.162-.034h-7.108v4.651h7.108V7.178z"></path>
                <path fill='red' d="M111.326 106.525c-9.007-.028-16.977-8.053-16.93-17.042.046-9.023 8.064-16.974 17.058-16.912 9.056.062 16.972 8.027 16.93 17.039-.043 9.013-8.038 16.941-17.058 16.915zm.081-29.087c-7.011-.012-12.122 5.055-12.159 12.057-.036 6.962 5.094 12.149 12.052 12.188 7.046.038 12.241-5.121 12.232-12.149-.011-6.994-5.111-12.082-12.125-12.096zM33.819 39.83c0 .235.021.476-.003.709-.204 2.036.043 3.656 2.135 4.92 1.962 1.189 2.757 3.387 2.721 5.781-.042 2.838-.063 5.678 0 8.515.069 3.104-1.335 5.362-3.882 6.936-.755.467-1.036.929-.989 1.783.07 1.273.039 2.555.017 3.831-.03 1.628-1.051 2.722-2.472 2.695-1.392-.028-2.326-1.063-2.373-2.638-.013-.426-.027-.854.007-1.276.18-2.204.06-4.063-2.275-5.443-1.92-1.136-2.638-3.346-2.591-5.689.056-2.837.075-5.678.003-8.514-.08-3.111 1.324-5.357 3.878-6.929.745-.457 1.028-.915 1.001-1.779-.065-2.08-.038-4.163-.015-6.243.018-1.675.984-2.711 2.444-2.688 1.388.021 2.345 1.05 2.387 2.625.03 1.133.006 2.269.007 3.404zm-.002 15.753h-.006c0-1.605.029-3.211-.009-4.814-.041-1.716-.794-2.438-2.43-2.43-1.631.009-2.375.741-2.387 2.465-.022 3.21-.022 6.42.007 9.63.016 1.767.671 2.373 2.408 2.368 1.697-.005 2.375-.654 2.411-2.403.032-1.605.006-3.211.006-4.816zM67.782 41.063c-3.923.002-7.847.026-11.77-.008-2.163-.019-3.39-1.712-2.566-3.445.485-1.021 1.355-1.402 2.425-1.403 7.941-.003 15.883-.017 23.825.013 1.578.005 2.601 1.037 2.601 2.414 0 1.371-1.028 2.399-2.603 2.415-3.969.04-7.941.013-11.912.014zM121.024 60.48c1.353-.025 2.485 1.052 2.5 2.374.017 1.302-1.137 2.462-2.443 2.459-1.278-.002-2.33-1.033-2.382-2.337-.057-1.387.953-2.471 2.325-2.496zM101.731 60.483c1.379.019 2.391 1.083 2.351 2.474a2.403 2.403 0 0 1-2.364 2.353c-1.318.016-2.462-1.117-2.459-2.433.004-1.329 1.121-2.41 2.472-2.394zM113.798 62.809c.039 1.337-1.042 2.477-2.371 2.501-1.325.024-2.446-1.085-2.45-2.426a2.39 2.39 0 0 1 2.306-2.4c1.371-.054 2.476.965 2.515 2.325zM108.938 116.272c-.024 1.351-1.156 2.427-2.486 2.365-1.274-.056-2.332-1.142-2.34-2.403-.013-1.326 1.1-2.428 2.446-2.423 1.354.007 2.404 1.094 2.38 2.461zM116.266 113.819c1.354.015 2.436 1.123 2.396 2.457-.037 1.323-1.203 2.417-2.516 2.36a2.407 2.407 0 0 1-2.303-2.409 2.363 2.363 0 0 1 2.423-2.408z"></path>
                <path fill='red' d="M111.361 86.307c1.148-1.212 2.031-2.2 2.977-3.124 1.175-1.147 2.648-1.183 3.639-.154.979 1.016.945 2.387-.188 3.534-.956.968-2.004 1.852-3.208 2.953 1.214 1.139 2.235 2.037 3.187 3.005 1.124 1.145 1.185 2.527.232 3.535-1.005 1.066-2.431 1.051-3.636-.117-.949-.918-1.826-1.912-2.886-3.032-1.005 1.002-1.89 1.888-2.781 2.767-1.399 1.378-2.729 1.534-3.841.456-1.1-1.066-.967-2.487.366-3.847.826-.844 1.659-1.68 2.487-2.521.033-.034.05-.081.429-.475-.998-.848-2.046-1.646-2.983-2.555-1.302-1.263-1.379-2.679-.317-3.737 1.03-1.031 2.494-.93 3.744.324.897.899 1.733 1.857 2.779 2.988z"></path>
              </g>
            </svg>